<?xml version="1.0" encoding="UTF-8"?>
<svg xmlns="http://www.w3.org/2000/svg" width="65" height="65" viewBox="0 0 65 65" fill="none">
  <circle cx="32.5" cy="32.5" r="31.5" fill="#3BEABC"></circle>
  <path d="M28.48 48.3747C23.1507 46.9424 20.2613 41.2807 22.2504 36.1614L25.1655 28.6377C26.7648 24.5048 31.2823 22.2349 35.5876 23.3921C39.9512 24.5648 42.6454 28.8722 41.7714 33.2744L40.1912 41.1693C39.1375 46.478 33.7395 49.7883 28.48 48.3747Z" stroke="black" stroke-width="1.5" stroke-linecap="round" stroke-linejoin="round"></path>
  <path d="M39.0141 25.2766C39.5686 24.7304 40.0008 24.0396 40.2214 23.2546C40.8961 20.8536 39.4835 18.3883 37.0599 17.7369C34.6363 17.0856 32.1455 18.5019 31.4708 20.9029C31.2405 21.7224 31.2594 22.5469 31.4707 23.3114" stroke="black" stroke-width="1.5" stroke-linecap="round" stroke-linejoin="round"></path>
  <path d="M28.5141 48.3483L32.8691 32.7376" stroke="black" stroke-width="1.5" stroke-linecap="round" stroke-linejoin="round"></path>
  <path d="M31.3932 23.2716L25.4902 21.6831L23.3564 18.1092" stroke="black" stroke-width="1.5" stroke-linecap="round" stroke-linejoin="round"></path>
  <path d="M24.9992 28.7172L21.2554 27.7102L17.958 23.4154" stroke="black" stroke-width="1.5" stroke-linecap="round" stroke-linejoin="round"></path>
  <path d="M21.915 37.0452L18.1851 36.0426L14.6802 39.2367" stroke="black" stroke-width="1.5" stroke-linecap="round" stroke-linejoin="round"></path>
  <path d="M22.5948 43.5295L19.6903 45.0435L16.9671 47.338" stroke="black" stroke-width="1.5" stroke-linecap="round" stroke-linejoin="round"></path>
  <path d="M39.2154 25.4032L45.1183 26.9918L48.8058 24.9845" stroke="black" stroke-width="1.5" stroke-linecap="round" stroke-linejoin="round"></path>
  <path d="M41.8838 33.3019L45.6276 34.3089L50.6926 32.2635" stroke="black" stroke-width="1.5" stroke-linecap="round" stroke-linejoin="round"></path>
  <path d="M40.2275 42.0141L43.9457 43.0135L45.3012 47.5141" stroke="black" stroke-width="1.5" stroke-linecap="round" stroke-linejoin="round"></path>
  <path d="M36.2822 47.2435L37.9876 49.9963L39.1293 53.3294" stroke="black" stroke-width="1.5" stroke-linecap="round" stroke-linejoin="round"></path>
  <path d="M34.1719 17.8745C34.1719 17.8745 33.1021 15.1967 35.716 13.5235" stroke="black" stroke-width="1.5" stroke-linecap="round" stroke-linejoin="round"></path>
  <path d="M39.4533 19.3046C39.4533 19.3046 41.769 17.5388 40.3945 14.7913" stroke="black" stroke-width="1.5" stroke-linecap="round" stroke-linejoin="round"></path>
</svg>
