<?xml version="1.0" encoding="utf-8"?>
<!-- Generator: Adobe Illustrator 27.5.0, SVG Export Plug-In . SVG Version: 6.00 Build 0)  -->
<svg version="1.1" xmlns="http://www.w3.org/2000/svg" xmlns:xlink="http://www.w3.org/1999/xlink" x="0px" y="0px"
	 viewBox="0 0 132.9 131.2" style="enable-background:new 0 0 132.9 131.2;" xml:space="preserve">
<style type="text/css">
	.st0{fill:#53008E;}
	.st1{fill:#7A00F9;}
	.st2{fill:#3BEABC;}
	.st3{fill:#FF0049;}
	.st4{fill:#FFFFFF;}
	.st5{fill:#231F20;}
</style>
<g id="Avatar">
</g>
<g id="Moodboard">
</g>
<g id="Logos">
	<circle class="st1" cx="66.5" cy="65.6" r="65.1"/>
	<g>
		<g>
			<path class="st4" d="M92,85c-0.1,0-0.2,0-0.4,0l-48.2,0c-5.5-0.4-9.8-2.8-12.5-7.1c-1.7-2.6-2.7-5.9-3.2-9.8h-1.6
				c-5.2,0-9.5-5.1-9.5-10.3v-0.2c0-3,3.3-11.5,5.5-16.5c6.2-14,9.1-14,10.4-14c3,0,5.4,2.4,5.4,5.4v0.4l-0.2,0.4
				c-4.3,11.4-5.5,22.1-5.5,29.9l68.4,0c0-7.8-2.6-18.7-5.6-30.3L95,32.7v-0.3c0-2.9,2.3-5.2,5.2-5.2c1.4,0,4.2,0,10.5,14.1
				c2.2,5,5.6,13.6,5.6,16.6c0,5.2-4.3,10.3-9.5,10.3l-1.5,0c-0.5,5.6-1.9,9.8-4.2,12.7C98.8,83.6,95.7,85,92,85z M43.6,80.2l48.1,0
				c2.4,0.1,4.2-0.7,5.6-2.5c1.6-2,2.7-5.3,3.1-9.6l-8.7,0H32.5c0.4,2.9,1.2,5.3,2.4,7.2C36.8,78.4,39.7,79.9,43.6,80.2z M32.8,32.1
				c-1,0.9-3.5,4.6-6.7,12.1c-2.9,6.6-4.6,12.3-4.6,13.5v0.2c0,2.6,2.1,5.5,4.7,5.5h1.3c0.1-8.2,1.2-19.3,5.6-31
				C33,32.3,32.9,32.2,32.8,32.1z M99.8,32.2c2.7,10.9,5.4,21.3,5.6,29.2c0,0.6,0,1.3,0,1.9l1.3,0c2.6,0,4.7-2.9,4.7-5.5
				c0-1.2-1.8-6.9-4.7-13.5c-3.3-7.5-5.8-11.2-6.8-12.2C99.9,32.1,99.8,32.2,99.8,32.2z"/>
		</g>
		<g>
			<path class="st4" d="M71.4,112h-9.9c-6.7,0-12.1-5.4-12.1-12.1v-1.3l12.3-7.9c1.5-1.3,3.4-2,5.4-1.9c2,0.1,3.8,0.9,5.2,2.3
				l11.2,7.6v1.3C83.5,106.6,78,112,71.4,112z M54.4,101.2c0.6,3.4,3.6,6,7.2,6h9.9c3.6,0,6.6-2.6,7.2-6.1l-9.5-6.4l-0.2-0.2
				c-0.5-0.6-1.2-0.9-2-0.9c-0.8,0-1.5,0.2-2.1,0.8l-0.2,0.2L54.4,101.2z"/>
		</g>
	</g>
</g>
<g id="Couleurs_x2B_Typo">
</g>
</svg>
