<?xml version="1.0" encoding="UTF-8"?>
<svg id="Calque_1" data-name="Calque 1" xmlns="http://www.w3.org/2000/svg" version="1.1" viewBox="0 0 418.9 133.3">
  <defs>
    <style>
      .cls-1 {
        fill: #7a00f9;
      }

      .cls-1, .cls-2 {
        stroke-width: 0px;
      }

      .cls-2 {
        fill: #fff;
      }
    </style>
  </defs>
  <g id="Logos">
    <g>
      <path class="cls-2" d="M187.6,79.7c-.3,0-.4.2-.4.5v12.7c0,1-.4,1.8-1.1,2.5-.7.7-1.6,1-2.5,1h-6.1c-1,0-1.9-.3-2.6-1-.7-.7-1-1.5-1-2.5v-12.7c0-.3-.1-.4-.4-.5-5.9-1.6-10.7-4.8-14.4-9.7-3.8-4.9-5.6-10.4-5.6-16.6v-4.7c0-1,.3-1.8,1-2.5s1.6-1,2.6-1h6.1c1,0,1.8.3,2.5,1s1.1,1.5,1.1,2.5v4.6c0,4.2,1.3,7.7,4.1,10.6,2.7,2.9,5.9,4.3,9.7,4.3s7-1.4,9.7-4.3c2.7-2.9,4.1-6.4,4.1-10.5v-4.7c0-1,.3-1.8,1-2.5s1.6-1,2.6-1h6.1c1,0,1.8.3,2.5,1s1.1,1.5,1.1,2.5v4.6c0,6.2-1.9,11.8-5.7,16.7-3.8,4.9-8.6,8.1-14.4,9.7Z"/>
      <path class="cls-2" d="M273,96.3h-6.2c-1,0-1.8-.3-2.5-1s-1-1.5-1-2.5v-5.6h-27.6v5.6c0,1-.3,1.8-1,2.5s-1.6,1-2.6,1h-6c-1,0-1.9-.3-2.6-1-.7-.7-1-1.5-1-2.5v-21.9c0-7.6,2.6-14,7.9-19.3,5.3-5.3,11.7-8,19.2-8s13.9,2.7,19.2,8,7.9,11.8,7.9,19.3v21.9c0,1-.3,1.8-1,2.5-.8.7-1.7,1-2.7,1ZM263.2,70.4c0-4.2-1.4-7.7-4.1-10.6-2.7-2.9-5.9-4.3-9.7-4.3s-7,1.4-9.8,4.3c-2.8,2.9-4.1,6.3-4.1,10.4v5.1h27.6v-4.9h.1Z"/>
      <path class="cls-2" d="M340.2,96.3h-21.1c-7.5,0-13.9-2.5-19.2-7.4-5.3-4.9-7.9-11-7.9-18.2s2.6-13.2,7.9-18.1c5.3-4.9,11.7-7.3,19.2-7.3h21.1c1,0,1.8.3,2.5,1s1,1.5,1,2.5v10.2c0,1-.3,1.8-1,2.5s-1.5,1-2.5,1h-5.5c-1,0-1.8-.3-2.5-1s-1-1.5-1-2.5v-1.9h-12c-3.8,0-7.1,1.3-9.8,3.9-2.7,2.6-4.1,5.8-4.1,9.7s1.3,7.2,4.1,9.8c2.7,2.6,6,3.9,9.8,3.9h12v-1.9c0-1,.3-1.8,1-2.5s1.5-1,2.5-1h5.5c1,0,1.8.3,2.5,1s1,1.5,1,2.5v10.3c0,1-.3,1.8-1,2.5s-1.6,1-2.5,1Z"/>
      <path class="cls-2" d="M415.2,96.3h-7.9c-1.4,0-2.4-.6-3.1-1.8l-10.8-17.9h-19.4v16.2c0,1-.3,1.8-1,2.5s-1.6,1-2.6,1h-6c-1,0-1.9-.3-2.6-1s-1-1.5-1-2.5v-44.1c0-1,.3-1.8,1-2.5s1.6-1,2.6-1h6c1,0,1.9.3,2.6,1s1,1.5,1,2.5v16h18.8l7.6-17.4c.6-1.4,1.7-2.1,3.3-2.1h6.8c1,0,1.9.3,2.5,1,.7.7,1,1.5,1,2.5s-.1,1-.3,1.5l-8.6,19.4,13,21.1c.5.6.8,1.3.8,2.2s-.3,1.7-1,2.4-1.6,1-2.7,1Z"/>
    </g>
    <circle class="cls-1" cx="66.3" cy="66.3" r="65.1"/>
    <g>
      <path class="cls-2" d="M91.9,85.7h-48.6c-5.5-.4-9.8-2.8-12.5-7.1-1.7-2.6-2.7-5.9-3.2-9.8h-1.6c-5.2,0-9.5-5.1-9.5-10.3v-.2c0-3,3.3-11.5,5.5-16.5,6.2-14,9.1-14,10.4-14,3,0,5.4,2.4,5.4,5.4v.4l-.2.4c-4.3,11.4-5.5,22.1-5.5,29.9h68.4c0-7.8-2.6-18.7-5.6-30.3v-.3c0,0,0-.3,0-.3,0-2.9,2.3-5.2,5.2-5.2s4.2,0,10.5,14.1c2.2,5,5.6,13.6,5.6,16.6,0,5.2-4.3,10.3-9.5,10.3h-1.5c-.5,5.6-1.9,9.8-4.2,12.7-2.2,2.7-5.3,4.2-9,4.2ZM43.5,80.9h48.1c2.4,0,4.2-.7,5.6-2.5,1.6-2,2.7-5.3,3.1-9.6H32.4c.4,2.9,1.2,5.3,2.4,7.2,1.9,3,4.8,4.6,8.7,4.9ZM32.7,32.8c-1,.9-3.5,4.6-6.7,12.1-2.9,6.6-4.6,12.3-4.6,13.5v.2c0,2.6,2.1,5.5,4.7,5.5h1.3c.1-8.2,1.2-19.3,5.6-31,0-.2-.2-.3-.3-.3ZM99.7,32.9c2.7,10.9,5.4,21.3,5.6,29.2v1.9h1.3c2.6,0,4.7-2.9,4.7-5.5s-1.8-6.9-4.7-13.5c-3.3-7.5-5.8-11.2-6.8-12.2,0,0,0,.1,0,.1Z"/>
      <path class="cls-2" d="M71.3,112.7h-9.9c-6.7,0-12.1-5.4-12.1-12.1v-1.3l12.3-7.9c1.5-1.3,3.4-2,5.4-1.9s3.8.9,5.2,2.3l11.2,7.6v1.3c0,6.6-5.5,12-12.1,12ZM54.2,101.8c.6,3.4,3.6,6,7.2,6h9.9c3.6,0,6.6-2.6,7.2-6.1l-9.5-6.4-.2-.2c-.5-.6-1.2-.9-2-.9s-1.5.2-2.1.8l-.2.2-10.3,6.6Z"/>
    </g>
  </g>
</svg>